<svg width="62" height="60" viewBox="0 0 62 60" fill="none" xmlns="http://www.w3.org/2000/svg">
<rect x="1" width="60" height="60" rx="30" fill="black" fill-opacity="0.67"/>
<g filter="url(#filter0_d_301_8)">
<path d="M16.048 43.9229C16.2549 43.9229 16.5444 43.8875 16.9109 43.8284C17.2773 43.7634 17.6732 43.6629 18.1047 43.5092C18.542 43.3615 18.9793 43.1606 19.4166 42.9064C19.854 42.6523 20.2558 42.3332 20.6164 41.949C20.9769 41.5649 21.2664 41.1098 21.4969 40.5779C21.7274 40.046 21.8397 39.4196 21.8397 38.6986C21.8397 37.9185 21.6388 37.292 21.231 36.8133C20.8173 36.3406 20.2795 35.9564 19.6117 35.6609C18.9439 35.3713 18.1874 35.1409 17.3364 34.9754C16.4913 34.8099 15.6166 34.6444 14.7242 34.4849C13.8377 34.3253 12.9631 34.1362 12.118 33.9293C11.2669 33.7166 10.5105 33.4152 9.84265 33.0251C9.17483 32.6351 8.63113 32.1327 8.22334 31.524C7.81556 30.9094 7.61463 30.1175 7.61463 29.1542C7.61463 28.4331 7.77419 27.6412 8.10515 26.7725C8.43019 25.9096 8.90889 25.035 9.53534 24.1544C10.1618 23.2738 10.9301 22.4228 11.8402 21.5895C12.7503 20.7621 13.7904 20.0293 14.9606 19.391C16.1308 18.7528 17.4191 18.2445 18.8316 17.8604C20.244 17.4762 21.7688 17.2812 23.3999 17.2812C24.9897 17.2812 26.1953 17.5294 27.0227 18.014C27.8559 18.5046 28.2696 19.2492 28.2696 20.2539C28.2696 20.6912 28.1692 21.1167 27.9741 21.5363C27.7732 21.9559 27.5545 22.3401 27.3241 22.6887C27.0877 23.0374 26.8631 23.3211 26.6503 23.5457C26.4435 23.7643 26.3312 23.8825 26.3194 23.8944L26.4317 24.0657C26.4908 24.0007 26.6681 23.8353 26.9576 23.5693C27.2472 23.3034 27.5545 22.9724 27.8796 22.5705C28.1987 22.1628 28.4942 21.7077 28.7542 21.1995C29.0143 20.6971 29.1443 20.1593 29.1443 19.6038C29.1443 18.3686 28.6774 17.4349 27.7555 16.8084C26.8335 16.182 25.492 15.8688 23.7368 15.8688C22.6434 15.8688 21.4733 16.0224 20.2145 16.3238C18.9616 16.6311 17.7087 17.0625 16.4735 17.6181C15.2325 18.1736 14.0446 18.8473 12.904 19.6393C11.7693 20.4371 10.7587 21.3236 9.87811 22.3164C8.99754 23.3093 8.30017 24.379 7.7801 25.5373C7.26003 26.6956 7 27.9131 7 29.1896C7 30.3302 7.20094 31.2758 7.60281 32.0323C8.00468 32.7887 8.53657 33.4093 9.19847 33.888C9.86038 34.3726 10.6168 34.7508 11.4679 35.0345C12.313 35.3122 13.1817 35.5368 14.0564 35.72C14.937 35.8973 15.7998 36.0628 16.6508 36.2105C17.4959 36.3583 18.2524 36.5533 18.9143 36.7956C19.5762 37.0379 20.1081 37.3511 20.5159 37.7353C20.9178 38.1194 21.1187 38.6336 21.1187 39.2778C21.1187 39.7446 21.0064 40.1879 20.7936 40.5957C20.575 41.0034 20.2795 41.358 19.9013 41.6654C19.523 41.9668 19.0857 42.2091 18.5834 42.3864C18.081 42.5696 17.5432 42.6582 16.9759 42.6582C16.5267 42.6582 16.2076 42.6346 16.0185 42.5814C15.8234 42.5341 15.6639 42.4691 15.5279 42.3982C15.4629 42.3627 15.4275 42.3095 15.4157 42.2504C15.4038 42.1854 15.392 42.1263 15.3861 42.0731C15.3802 42.014 15.3684 41.9668 15.3566 41.9254C15.3447 41.8781 15.3093 41.8604 15.2443 41.8604C15.197 41.8604 15.132 41.8958 15.0492 41.9727C14.9724 42.0436 14.8897 42.1381 14.8129 42.2504C14.7301 42.3627 14.6592 42.475 14.606 42.5991C14.5528 42.7232 14.5233 42.8296 14.5233 42.9182C14.5233 43.0187 14.5587 43.1251 14.6356 43.2433C14.7065 43.3615 14.8129 43.4679 14.9429 43.5683C15.0729 43.6688 15.2325 43.7515 15.4216 43.8166C15.6166 43.8875 15.8234 43.9229 16.048 43.9229ZM55 39.6087L54.8109 39.5378C54.6868 39.7978 54.4918 40.1406 54.2258 40.5661C53.9599 40.9975 53.6703 41.4112 53.3452 41.8131C53.0261 42.215 52.7011 42.5637 52.3819 42.8591C52.0569 43.1606 51.7791 43.3083 51.5427 43.3083C51.2709 43.3083 51.0286 43.1428 50.8217 42.8178C50.609 42.4868 50.4317 42.079 50.278 41.6003C50.1303 41.1157 50.018 40.5898 49.9471 40.0283C49.8702 39.4669 49.8348 38.9468 49.8348 38.4799C49.8348 36.5356 49.9766 34.5558 50.2544 32.5523C50.5321 30.5489 50.8867 28.5573 51.3122 26.5893C51.7377 24.6213 52.2046 22.7006 52.7129 20.8212C53.2211 18.9478 53.7057 17.1689 54.1608 15.5023C54.1608 15.3901 54.1135 15.2896 54.0131 15.2128C53.9185 15.13 53.818 15.0591 53.7176 15C53.3925 15 53.0261 15.1891 52.6006 15.5733C52.181 15.9574 51.7318 16.4775 51.2472 17.1276C50.7626 17.7776 50.2544 18.5341 49.7225 19.4088C49.1906 20.2834 48.6528 21.2113 48.115 22.1864C47.5772 23.1674 47.0394 24.1721 46.5016 25.2123C45.9638 26.2524 45.4496 27.263 44.9591 28.244C44.4686 29.2192 44.0076 30.147 43.5762 31.0217C43.1389 31.8904 42.7547 32.6528 42.4238 33.3029C42.0869 33.953 41.8151 34.473 41.5964 34.8572C41.3777 35.2413 41.2359 35.4304 41.1591 35.4304C41.0882 34.7035 41.0291 33.8407 40.9936 32.8478C40.9581 31.8609 40.9109 30.8385 40.8636 29.7865C40.8163 28.7345 40.7513 27.6944 40.6745 26.672C40.6035 25.6496 40.4972 24.7395 40.3612 23.9357C40.2253 23.1261 40.0421 22.476 39.8116 21.9796C39.587 21.489 39.2975 21.2408 38.9488 21.2408C38.801 21.2408 38.6769 21.2645 38.5705 21.3236C38.4642 21.3768 38.3755 21.4477 38.2987 21.5363C38.2278 21.625 38.1687 21.7077 38.1214 21.7964C38.08 21.885 38.0505 21.95 38.0387 22.0032C38.0623 22.1982 38.0918 22.411 38.1155 22.6356C38.1391 22.8542 38.1509 23.0552 38.1509 23.2265C38.1628 23.983 38.1096 24.8281 37.9914 25.7737C37.8732 26.7134 37.6959 27.7003 37.4536 28.7227C37.2113 29.751 36.9158 30.7971 36.5612 31.855C36.2125 32.9128 35.7988 33.9411 35.3378 34.9281C34.871 35.921 34.3568 36.8547 33.7954 37.7235C33.2339 38.5981 32.6252 39.3605 31.9751 40.0106C31.325 40.6607 30.6277 41.1748 29.883 41.5531C29.1443 41.9313 28.3642 42.1204 27.5427 42.1204C27.1822 42.1204 26.8276 42.0909 26.473 42.0377C26.1244 41.9786 25.7875 41.884 25.4743 41.7481C25.1551 41.6122 24.8715 41.423 24.6114 41.1926C24.3514 40.9562 24.1445 40.6548 23.9968 40.3002L23.8077 40.3711C23.8727 40.6075 23.9732 40.9089 24.1091 41.2753C24.245 41.6417 24.44 41.9904 24.7001 42.3332C24.9601 42.67 25.3029 42.9655 25.7225 43.2078C26.1421 43.4442 26.674 43.5683 27.3004 43.5683C28.2342 43.5683 29.1088 43.3497 29.9303 42.9064C30.7518 42.4691 31.526 41.8722 32.2411 41.1276C32.9621 40.377 33.6181 39.5023 34.215 38.5036C34.806 37.5107 35.3438 36.4588 35.8284 35.3595C36.313 34.2544 36.7385 33.1315 37.099 31.985C37.4654 30.8385 37.7727 29.7392 38.0209 28.6814C38.2691 27.6176 38.4524 26.6365 38.5765 25.7323C38.7006 24.8281 38.7656 24.0717 38.7656 23.4511C38.7656 23.2738 38.7597 23.1143 38.7538 22.9665C38.7478 22.8188 38.7478 22.6947 38.7478 22.5942C38.7301 22.4701 38.7242 22.3578 38.7242 22.2632C38.8601 22.4346 38.9783 22.7892 39.0788 23.327C39.1793 23.8707 39.2679 24.5267 39.3388 25.3009C39.4157 26.0751 39.4807 26.9261 39.5457 27.8599C39.6048 28.7996 39.6639 29.7451 39.723 30.7025C39.7762 31.6658 39.8294 32.6055 39.8766 33.5275C39.9298 34.4494 39.983 35.2768 40.048 36.0096C40.0717 36.2164 40.1189 36.3878 40.1958 36.506C40.2667 36.6301 40.3967 36.6951 40.5858 36.6951C40.7572 36.6951 40.9227 36.6361 41.0882 36.5297C41.2477 36.4174 41.3896 36.2874 41.5196 36.1396C41.6496 35.986 41.7678 35.8323 41.8683 35.6609C41.9628 35.4954 42.0456 35.3595 42.1047 35.2472C42.7016 34.1539 43.3457 32.9365 44.0372 31.5949C44.7345 30.2534 45.4319 28.8882 46.1411 27.5112C46.8444 26.1283 47.5417 24.7808 48.2391 23.4689C48.9306 22.1569 49.5747 20.9926 50.1716 19.9761C50.7626 18.9596 51.2945 18.1441 51.7555 17.5235C52.2224 16.903 52.5829 16.5957 52.8429 16.5957C52.3228 18.3923 51.8087 20.1948 51.2945 22.0091C50.7803 23.8234 50.3194 25.6555 49.9175 27.4994C49.5156 29.3433 49.1906 31.2049 48.9424 33.0842C48.6942 34.9576 48.5701 36.8547 48.5701 38.7754C48.5701 39.396 48.6114 40.0579 48.6942 40.7611C48.771 41.4703 48.9069 42.1204 49.0901 42.7114C49.2792 43.3083 49.5215 43.8047 49.8229 44.2007C50.1303 44.5967 50.4967 44.7917 50.9281 44.7917C51.2177 44.7917 51.5132 44.6853 51.8205 44.4666C52.1337 44.2539 52.4292 43.9761 52.7129 43.6333C52.9966 43.2906 53.2743 42.9123 53.5344 42.4986C53.7944 42.085 54.0249 41.6831 54.2258 41.2989C54.4327 40.9148 54.604 40.572 54.74 40.2706C54.8759 39.9692 54.9645 39.7446 55 39.6087Z" fill="white"/>
</g>
<defs>
<filter id="filter0_d_301_8" x="0" y="12" width="62" height="43.7916" filterUnits="userSpaceOnUse" color-interpolation-filters="sRGB">
<feFlood flood-opacity="0" result="BackgroundImageFix"/>
<feColorMatrix in="SourceAlpha" type="matrix" values="0 0 0 0 0 0 0 0 0 0 0 0 0 0 0 0 0 0 127 0" result="hardAlpha"/>
<feOffset dy="4"/>
<feGaussianBlur stdDeviation="3.5"/>
<feComposite in2="hardAlpha" operator="out"/>
<feColorMatrix type="matrix" values="0 0 0 0 0 0 0 0 0 0 0 0 0 0 0 0 0 0 0.75 0"/>
<feBlend mode="normal" in2="BackgroundImageFix" result="effect1_dropShadow_301_8"/>
<feBlend mode="normal" in="SourceGraphic" in2="effect1_dropShadow_301_8" result="shape"/>
</filter>
</defs>
</svg>
